<svg width="53" height="15" viewBox="0 0 53 15" fill="none" xmlns="http://www.w3.org/2000/svg">
<g clip-path="url(#clip0_109_2)">
<path d="M0.864 12V3.096H2.736V12H0.864ZM8.43338 12V10.74L8.31338 10.464V8.208C8.31338 7.808 8.18938 7.496 7.94138 7.272C7.70138 7.048 7.32938 6.936 6.82538 6.936C6.48138 6.936 6.14138 6.992 5.80538 7.104C5.47738 7.208 5.19738 7.352 4.96538 7.536L4.29338 6.228C4.64538 5.98 5.06938 5.788 5.56538 5.652C6.06138 5.516 6.56538 5.448 7.07738 5.448C8.06138 5.448 8.82538 5.68 9.36938 6.144C9.91338 6.608 10.1854 7.332 10.1854 8.316V12H8.43338ZM6.46538 12.096C5.96138 12.096 5.52938 12.012 5.16938 11.844C4.80938 11.668 4.53338 11.432 4.34138 11.136C4.14938 10.84 4.05338 10.508 4.05338 10.14C4.05338 9.756 4.14538 9.42 4.32938 9.132C4.52138 8.844 4.82138 8.62 5.22938 8.46C5.63738 8.292 6.16938 8.208 6.82538 8.208H8.54138V9.3H7.02938C6.58938 9.3 6.28538 9.372 6.11738 9.516C5.95738 9.66 5.87738 9.84 5.87738 10.056C5.87738 10.296 5.96938 10.488 6.15338 10.632C6.34538 10.768 6.60538 10.836 6.93338 10.836C7.24538 10.836 7.52538 10.764 7.77338 10.62C8.02138 10.468 8.20138 10.248 8.31338 9.96L8.60138 10.824C8.46538 11.24 8.21738 11.556 7.85738 11.772C7.49738 11.988 7.03338 12.096 6.46538 12.096ZM13.4276 10.68L13.4756 8.4L16.4876 5.544H18.7196L15.8276 8.484L14.8556 9.276L13.4276 10.68ZM11.8796 12V3.096H13.7516V12H11.8796ZM16.6916 12L14.5076 9.288L15.6836 7.836L18.9596 12H16.6916ZM21.7626 12.096C21.2106 12.096 20.6786 12.032 20.1666 11.904C19.6626 11.768 19.2626 11.6 18.9666 11.4L19.5906 10.056C19.8866 10.24 20.2346 10.392 20.6346 10.512C21.0426 10.624 21.4426 10.68 21.8346 10.68C22.2666 10.68 22.5706 10.628 22.7466 10.524C22.9306 10.42 23.0226 10.276 23.0226 10.092C23.0226 9.94 22.9506 9.828 22.8066 9.756C22.6706 9.676 22.4866 9.616 22.2546 9.576C22.0226 9.536 21.7666 9.496 21.4866 9.456C21.2146 9.416 20.9386 9.364 20.6586 9.3C20.3786 9.228 20.1226 9.124 19.8906 8.988C19.6586 8.852 19.4706 8.668 19.3266 8.436C19.1906 8.204 19.1226 7.904 19.1226 7.536C19.1226 7.128 19.2386 6.768 19.4706 6.456C19.7106 6.144 20.0546 5.9 20.5026 5.724C20.9506 5.54 21.4866 5.448 22.1106 5.448C22.5506 5.448 22.9986 5.496 23.4546 5.592C23.9106 5.688 24.2906 5.828 24.5946 6.012L23.9706 7.344C23.6586 7.16 23.3426 7.036 23.0226 6.972C22.7106 6.9 22.4066 6.864 22.1106 6.864C21.6946 6.864 21.3906 6.92 21.1986 7.032C21.0066 7.144 20.9106 7.288 20.9106 7.464C20.9106 7.624 20.9786 7.744 21.1146 7.824C21.2586 7.904 21.4466 7.968 21.6786 8.016C21.9106 8.064 22.1626 8.108 22.4346 8.148C22.7146 8.18 22.9946 8.232 23.2746 8.304C23.5546 8.376 23.8066 8.48 24.0306 8.616C24.2626 8.744 24.4506 8.924 24.5946 9.156C24.7386 9.38 24.8106 9.676 24.8106 10.044C24.8106 10.444 24.6906 10.8 24.4506 11.112C24.2106 11.416 23.8626 11.656 23.4066 11.832C22.9586 12.008 22.4106 12.096 21.7626 12.096ZM29.8896 5.448C30.4016 5.448 30.8576 5.552 31.2576 5.76C31.6656 5.96 31.9856 6.272 32.2176 6.696C32.4496 7.112 32.5656 7.648 32.5656 8.304V12H30.6936V8.592C30.6936 8.072 30.5776 7.688 30.3456 7.44C30.1216 7.192 29.8016 7.068 29.3856 7.068C29.0896 7.068 28.8216 7.132 28.5816 7.26C28.3496 7.38 28.1656 7.568 28.0296 7.824C27.9016 8.08 27.8376 8.408 27.8376 8.808V12H25.9656V3.096H27.8376V7.332L27.4176 6.792C27.6496 6.36 27.9816 6.028 28.4136 5.796C28.8456 5.564 29.3376 5.448 29.8896 5.448ZM34.2624 12V5.544H36.0504V7.368L35.7984 6.84C35.9904 6.384 36.2984 6.04 36.7224 5.808C37.1464 5.568 37.6624 5.448 38.2704 5.448V7.176C38.1904 7.168 38.1184 7.164 38.0544 7.164C37.9904 7.156 37.9224 7.152 37.8504 7.152C37.3384 7.152 36.9224 7.3 36.6024 7.596C36.2904 7.884 36.1344 8.336 36.1344 8.952V12H34.2624ZM42.9217 12V10.74L42.8017 10.464V8.208C42.8017 7.808 42.6777 7.496 42.4297 7.272C42.1897 7.048 41.8177 6.936 41.3137 6.936C40.9697 6.936 40.6297 6.992 40.2937 7.104C39.9657 7.208 39.6857 7.352 39.4537 7.536L38.7817 6.228C39.1337 5.98 39.5577 5.788 40.0537 5.652C40.5497 5.516 41.0537 5.448 41.5657 5.448C42.5497 5.448 43.3137 5.68 43.8577 6.144C44.4017 6.608 44.6737 7.332 44.6737 8.316V12H42.9217ZM40.9537 12.096C40.4497 12.096 40.0177 12.012 39.6577 11.844C39.2977 11.668 39.0217 11.432 38.8297 11.136C38.6377 10.84 38.5417 10.508 38.5417 10.14C38.5417 9.756 38.6337 9.42 38.8177 9.132C39.0097 8.844 39.3097 8.62 39.7177 8.46C40.1257 8.292 40.6577 8.208 41.3137 8.208H43.0297V9.3H41.5177C41.0777 9.3 40.7737 9.372 40.6057 9.516C40.4457 9.66 40.3657 9.84 40.3657 10.056C40.3657 10.296 40.4577 10.488 40.6417 10.632C40.8337 10.768 41.0937 10.836 41.4217 10.836C41.7337 10.836 42.0137 10.764 42.2617 10.62C42.5097 10.468 42.6897 10.248 42.8017 9.96L43.0897 10.824C42.9537 11.24 42.7057 11.556 42.3457 11.772C41.9857 11.988 41.5217 12.096 40.9537 12.096ZM45.8879 14.424C45.5999 14.424 45.3239 14.392 45.0599 14.328C44.7959 14.272 44.5719 14.184 44.3879 14.064L44.8919 12.708C45.1079 12.86 45.3719 12.936 45.6839 12.936C45.9159 12.936 46.0999 12.856 46.2359 12.696C46.3799 12.544 46.4519 12.312 46.4519 12V5.544H48.3239V11.988C48.3239 12.732 48.1119 13.324 47.6879 13.764C47.2639 14.204 46.6639 14.424 45.8879 14.424ZM47.3879 4.644C47.0439 4.644 46.7639 4.544 46.5479 4.344C46.3319 4.144 46.2239 3.896 46.2239 3.6C46.2239 3.304 46.3319 3.056 46.5479 2.856C46.7639 2.656 47.0439 2.556 47.3879 2.556C47.7319 2.556 48.0119 2.652 48.2279 2.844C48.4439 3.028 48.5519 3.268 48.5519 3.564C48.5519 3.876 48.4439 4.136 48.2279 4.344C48.0199 4.544 47.7399 4.644 47.3879 4.644Z" fill="white"/>
</g>
<defs>
<clipPath id="clip0_109_2">
<rect width="53" height="15" fill="white"/>
</clipPath>
</defs>
</svg>
